# xmcd
#
# Track frame offsets: 
#        150
#        46346
#        112531
#        138535
#        170857
#        257480
#
# Disc length: 4502 seconds
#
# Revision: 1
# Processed by: cddbd v1.5.2PL0 Copyright (c) Steve Scherf et al.
# Submitted via: ExactAudioCopy v0.99pb4
#
DISCID=4a119406
DTITLE=Eric Dolphy - 75th Birthday Celebration [CD3)
DYEAR=2003
DGENRE=Jazz
TTITLE0=Woody'n You
TTITLE1=Booker's Waltz
TTITLE2=Les
TTITLE3=God Bless The Child
TTITLE4=My Favorite Things
TTITLE5=So Long Eric
EXTD=YEAR: 2003
EXTT0=
EXTT1=
EXTT2=
EXTT3=
EXTT4=
EXTT5=
PLAYORDER=
